<svg width="60" height="60" viewBox="0 0 60 60" fill="none" xmlns="http://www.w3.org/2000/svg">
<g clip-path="url(#clip0_30_3737)">
<path d="M41.6045 13.8462H4.60629C1.55077 13.8462 0.00078 15.3431 0.00078 18.2956L0 55.5857C0.00078 58.4726 1.57417 60 4.54934 60H41.5483C44.6031 60 46.1523 58.5031 46.1523 55.5506L46.1539 18.2605C46.1539 15.3736 44.5812 13.8462 41.6045 13.8462ZM44.1163 55.4392C44.1148 57.4534 43.5188 58.0362 41.4579 58.0362H4.64842C2.64754 58.0362 2.03754 57.4396 2.03754 55.4804L2.03831 18.407C2.03831 16.3928 2.63431 15.81 4.69677 15.81H41.5061C43.5062 15.81 44.1162 16.4066 44.1162 18.3643L44.1163 55.4392Z" fill="#663399"/>
<path d="M55.4507 0H18.4525C15.3969 0 13.847 1.49692 13.847 4.44942L13.8462 41.7395C13.847 44.6265 15.4203 46.1539 18.3955 46.1539H55.3945C58.4492 46.1539 59.9985 44.6569 59.9985 41.7044L60 4.41432C60 1.52738 58.4274 0 55.4507 0ZM57.9625 41.593C57.9609 43.6072 57.365 44.19 55.304 44.19H18.4946C16.4937 44.19 15.8837 43.5934 15.8837 41.6342L15.8845 4.5608C15.8845 2.54666 16.4805 1.9638 18.5429 1.9638H55.3523C57.3524 1.9638 57.9624 2.56041 57.9624 4.51809L57.9625 41.593Z" fill="#663399"/>
</g>
<defs>
<clipPath id="clip0_30_3737">
<rect width="60" height="60" fill="white"/>
</clipPath>
</defs>
</svg>
