<svg width="56" height="56" viewBox="0 0 56 56" fill="none" xmlns="http://www.w3.org/2000/svg">
<g clip-path="url(#clip0_30_3745)">
<path d="M9.1324 28.0965C7.57307 25.6556 5.99135 23.3315 4.56754 20.9143C2.48598 17.5822 1.0208 13.9029 0.242 10.052C-0.115849 8.32985 -0.0799206 6.54911 0.3471 4.8428C0.744329 3.42683 1.60172 2.18343 2.784 1.30879C3.96627 0.434152 5.40612 -0.0219298 6.87635 0.0125077C10.1242 -0.0509746 13.3363 0.699228 16.2201 2.19477C19.1783 3.64303 22.0043 5.36369 24.8697 6.99755C25.0316 7.06371 25.1766 7.16535 25.2941 7.29498C25.4115 7.42461 25.4984 7.57894 25.5483 7.74658C25.5982 7.91423 25.6098 8.09094 25.5824 8.26369C25.555 8.43644 25.4892 8.60084 25.3898 8.74479C25.2914 8.88745 25.1638 9.00757 25.0155 9.09718C24.8671 9.18679 24.7015 9.24384 24.5294 9.26455C24.3573 9.28526 24.1828 9.26915 24.0175 9.2173C23.8521 9.16545 23.6997 9.07903 23.5703 8.96379C20.3251 6.71541 16.8165 4.87361 13.1229 3.47963C11.1673 2.7099 9.07976 2.33118 6.97843 2.3649C6.36977 2.34271 5.76307 2.44623 5.19621 2.669C4.62935 2.89176 4.1145 3.22899 3.68379 3.65962C3.25308 4.09026 2.91576 4.60505 2.6929 5.17188C2.47003 5.7387 2.3664 6.34538 2.38848 6.95404C2.39977 9.80003 3.05412 12.6067 4.30265 15.1642C5.96219 18.9095 8.04131 22.4545 10.5001 25.7311C10.5764 25.8214 10.6576 25.9075 10.7433 25.989C10.9826 25.7007 11.2003 25.4428 11.4135 25.1813C17.0995 18.1132 23.8107 11.9352 31.3245 6.85267C35.0844 4.21429 39.2319 2.17715 43.6184 0.814378C45.5226 0.189511 47.5315 -0.0532412 49.5298 0.100048C53.6038 0.548128 55.9057 3.0805 55.9815 7.18422C55.9565 9.90493 55.3818 12.5925 54.2921 15.0856C52.504 19.3941 50.185 23.4625 47.389 27.1964C47.2022 27.4532 47.017 27.7112 46.8775 27.9043C48.2918 30.0824 49.7336 32.1718 51.0388 34.3434C53.1619 37.6765 54.7108 41.3421 55.6209 45.1877C56.0513 46.9432 56.1088 48.7695 55.7896 50.5486C55.0898 53.9096 52.6556 55.8302 48.8965 55.9408C46.175 55.9338 43.4836 55.3708 40.9875 54.2863C35.4018 51.9568 30.2052 48.7868 25.5779 44.8861C20.2892 40.6252 15.4688 35.8137 11.198 30.5328C11.0593 30.3616 10.9094 30.1994 10.7237 29.986C10.5656 30.18 10.4196 30.3398 10.2951 30.5149C7.26879 34.7716 4.542 39.1994 3.08972 44.2646C2.65807 45.8044 2.43535 47.3952 2.42756 48.9943C2.40604 51.8257 4.19527 53.506 7.02036 53.6167C9.52308 53.6732 12.0035 53.1354 14.2581 52.0474C16.9178 50.8312 19.4693 49.3779 22.0627 48.0177C22.4108 47.8352 22.729 47.5958 23.0616 47.3836C23.9756 46.8005 24.6337 46.8405 25.0611 47.5045C25.478 48.1521 25.2351 48.8067 24.3396 49.3827C20.594 51.9523 16.4825 53.9426 12.1437 55.2865C10.2352 55.902 8.21863 56.1096 6.22478 55.8958C2.31818 55.3358 0.11562 52.8148 0.0253095 48.8555C0.0356479 46.2091 0.576147 43.5916 1.61489 41.1576C3.39473 36.7922 5.72305 32.6712 8.54371 28.8939C8.74589 28.6143 8.95349 28.3386 9.1324 28.0965ZM45.3831 25.8952C45.4303 25.862 45.473 25.8229 45.5103 25.7789C48.2314 22.143 50.475 18.1732 52.1859 13.9665C53.1086 11.8333 53.5967 9.53742 53.6216 7.21329C53.5601 4.16786 51.8603 2.40629 48.8312 2.39538C47.6734 2.38894 46.5186 2.51268 45.3884 2.76427C41.2483 3.82735 37.3283 5.61301 33.8091 8.03906C25.7318 13.3502 18.5627 19.9277 12.5773 27.5188C12.1959 27.9917 12.4119 28.2329 12.6808 28.5719C16.8894 33.8714 21.6664 38.6933 26.9262 42.9514C31.2258 46.5873 36.0258 49.586 41.179 51.8554C43.5981 52.9905 46.2344 53.5878 48.9065 53.6062C51.8627 53.5153 53.6201 51.8057 53.5887 48.8443C53.5801 47.4167 53.3847 45.9964 53.0077 44.6195C51.4948 39.2538 48.6435 34.5668 45.3862 30.1042C45.3639 30.0737 45.2985 30.0747 45.2278 30.0533C45.0584 30.2507 44.8778 30.452 44.7072 30.6615C41.4571 34.6364 37.9077 38.3569 34.0901 41.7905C33.5227 42.3032 32.9513 42.8131 32.3577 43.2946C32.2439 43.4034 32.1095 43.4882 31.9623 43.544C31.8151 43.5998 31.6583 43.6255 31.501 43.6196C31.3437 43.6136 31.1892 43.5761 31.0467 43.5093C30.9042 43.4425 30.7765 43.3478 30.6713 43.2307C30.5661 43.1137 30.4855 42.9767 30.4342 42.8278C30.383 42.679 30.3621 42.5214 30.3729 42.3644C30.3837 42.2074 30.426 42.0541 30.4971 41.9137C30.5683 41.7733 30.6669 41.6487 30.7872 41.5471C30.9428 41.3893 31.1142 41.2468 31.2822 41.1015C35.6879 37.2882 39.7407 33.0853 43.3913 28.5439C43.4718 28.4745 43.5363 28.3884 43.5802 28.2916C43.6241 28.1948 43.6464 28.0896 43.6456 27.9832C43.6448 27.8769 43.6209 27.7721 43.5755 27.6759C43.5302 27.5798 43.4644 27.4947 43.3829 27.4265C39.708 22.809 35.6078 18.5465 31.1364 14.6951C30.9917 14.6043 30.8684 14.4833 30.7748 14.3404C30.6812 14.1975 30.6195 14.036 30.5941 13.8671C30.5686 13.6981 30.58 13.5257 30.6274 13.3616C30.6747 13.1974 30.757 13.0455 30.8685 12.916C30.9801 12.7866 31.1182 12.6829 31.2736 12.6118C31.429 12.5407 31.5978 12.5041 31.7687 12.5043C31.9395 12.5045 32.1083 12.5417 32.2634 12.6132C32.4186 12.6847 32.5565 12.7889 32.6676 12.9186C34.5391 14.6369 36.4649 16.3049 38.2318 18.1261C40.6683 20.6375 42.979 23.2709 45.3831 25.8952Z" fill="#663399"/>
</g>
<defs>
<clipPath id="clip0_30_3745">
<rect width="56" height="55.9976" fill="white" transform="translate(0 0.000976562)"/>
</clipPath>
</defs>
</svg>
