<svg width="60" height="52" viewBox="0 0 60 52" fill="none" xmlns="http://www.w3.org/2000/svg">
<g clip-path="url(#clip0_30_3752)">
<path d="M30.9593 48.6422C35.5962 50.9259 40.7094 52.0751 45.8775 51.9951C48.6021 51.8668 51.3095 51.4917 53.9664 50.8744L60 49.6754V4.11812L59.7817 4.16084C59.0255 4.31009 58.2723 4.45833 57.5171 4.60005C56.6276 4.76739 55.7392 4.94579 54.8508 5.12418C52.8186 5.53224 50.7182 5.95436 48.6209 6.23377C42.8859 6.97844 37.0598 5.96987 31.9088 3.34071C26.679 0.731171 20.8308 -0.385681 15.0074 0.112959C11.5904 0.415853 8.24317 1.25991 5.0911 2.61355C3.81207 3.14721 2.526 3.66283 1.23947 4.17842L0 4.67643V50.3257L6.36363 47.7929C9.99789 46.3073 13.8828 45.5305 17.8088 45.5044C22.3744 45.5326 26.8729 46.606 30.9593 48.6422ZM2.09834 6.14583L2.54705 5.93983C6.60151 4.07545 12.0387 1.93769 18.0217 2.06633C22.3553 2.10903 26.626 3.10786 30.5291 4.99152C33.7337 6.60724 37.1755 7.70158 40.7248 8.23333C44.4948 8.7518 48.3265 8.60623 52.0463 7.80321C53.1761 7.56652 54.3099 7.34892 55.4548 7.12881L57.9438 6.64588V18.9925L56.0508 19.3704C55.0923 19.5608 54.1334 19.7531 53.1742 19.9473C50.767 20.5089 48.313 20.8458 45.8435 20.9539C45.6602 20.9569 45.4769 20.9584 45.2947 20.9584C40.5945 20.9455 35.9603 19.8527 31.7496 17.7643C27.7162 15.7521 23.2968 14.6323 18.7919 14.4809C14.287 14.3296 9.80231 15.1504 5.643 16.8874L2.09834 18.292V6.14583ZM2.08081 21.5544C2.07191 21.29 2.13813 21.0286 2.2718 20.8003C2.40547 20.5721 2.6011 20.3864 2.83601 20.2649C3.55666 19.996 4.2748 19.7131 4.99245 19.4302C6.85238 18.6525 8.75891 17.9914 10.701 17.4507C17.4855 15.6927 24.6788 16.4774 30.9247 19.6568C34.0179 21.182 37.3304 22.2145 40.7423 22.7172C44.4928 23.2411 48.3063 23.0985 52.0073 22.2961C53.1401 22.0614 54.2769 21.8403 55.4357 21.6147L57.9477 21.1227V33.4829L55.5038 33.9573C54.1897 34.2096 52.8797 34.4608 51.5746 34.7402C49.4466 35.2016 47.2757 35.4368 45.0983 35.4418C42.2717 35.445 39.4607 35.0242 36.759 34.1935C35.0273 33.6463 33.3367 32.9766 31.7 32.1894C27.6771 30.2237 23.2841 29.1306 18.8091 28.9818C14.3341 28.833 9.87824 29.6319 5.73367 31.3261L3.33685 32.2789C3.20681 32.3248 3.06962 32.3473 2.93171 32.3452L2.20555 32.3402L2.08486 31.4839C2.07735 31.3703 2.07086 31.2607 2.07086 31.1502L2.07036 30.0607C2.06879 27.2254 2.06729 24.3891 2.08081 21.5544ZM5.73012 45.81C5.14519 46.0391 4.56226 46.2743 3.9593 46.5175L2.06979 47.2763L2.06879 39.8269C2.06729 38.5595 2.06579 37.2931 2.08131 36.0257C2.07588 35.7645 2.14292 35.5068 2.27498 35.2813C2.40705 35.0558 2.59898 34.8713 2.8295 34.7483C3.43196 34.5111 4.03292 34.2649 4.63438 34.0186C6.65635 33.1247 8.74817 32.398 10.8888 31.8457C17.4659 30.253 24.3919 30.9929 30.484 33.9392C33.7178 35.5439 37.1784 36.6438 40.7453 37.2006C44.4963 37.7226 48.31 37.5793 52.0113 36.7775C53.1501 36.5403 54.2919 36.3192 55.4507 36.0941L57.9277 35.6096V47.9648L51.0868 49.3206C49.1415 49.7083 47.163 49.9053 45.1794 49.9086C40.4527 49.8711 35.7968 48.7556 31.5662 46.6472C27.5693 44.671 23.1954 43.5737 18.7389 43.4293C14.2824 43.2849 9.84665 44.0966 5.73012 45.81Z" fill="#663399"/>
</g>
<defs>
<clipPath id="clip0_30_3752">
<rect width="60" height="52" fill="white"/>
</clipPath>
</defs>
</svg>
