<svg width="30" height="30" viewBox="0 0 30 30" fill="none" xmlns="http://www.w3.org/2000/svg">
<rect width="30" height="30" rx="15" fill="#663399"/>
<path d="M19.8193 14.9988C19.8194 15.1063 19.7983 15.2127 19.7572 15.312C19.716 15.4113 19.6557 15.5015 19.5796 15.5774L11.3967 23.7602C11.077 24.0799 10.5592 24.0799 10.2397 23.7602C9.92016 23.4404 9.91995 22.9227 10.2397 22.6031L17.844 14.9988L10.2397 7.39453C9.91995 7.07479 9.91995 6.55702 10.2397 6.23748C10.5594 5.91794 11.0772 5.91773 11.3967 6.23748L19.5796 14.4203C19.6557 14.4962 19.716 14.5864 19.7572 14.6857C19.7983 14.7849 19.8194 14.8914 19.8193 14.9988Z" fill="white"/>
</svg>
