<svg width="60" height="60" viewBox="0 0 60 60" fill="none" xmlns="http://www.w3.org/2000/svg">
<path d="M41.0954 44.6349C33.7962 44.6349 27.8572 38.6967 27.8572 31.3974C27.8572 24.0982 33.7962 18.1592 41.0954 18.1592C48.3947 18.1592 54.3337 24.0982 54.3337 31.3974C54.3337 38.6967 48.3947 44.6349 41.0954 44.6349ZM41.0954 19.72C34.657 19.72 29.418 24.9582 29.418 31.3974C29.418 37.8367 34.657 43.0741 41.0954 43.0741C47.5339 43.0741 52.7729 37.8359 52.7729 31.3974C52.7729 24.959 47.5347 19.72 41.0954 19.72Z" fill="#663399"/>
<path d="M38.6728 55.2843H8.20284C7.35365 55.2835 6.53947 54.9458 5.939 54.3453C5.33853 53.7448 5.00083 52.9306 5 52.0814V8.54025C5.00083 7.69105 5.33853 6.87688 5.939 6.27641C6.53947 5.67594 7.35365 5.33823 8.20284 5.3374H38.6728C39.522 5.33823 40.3362 5.67594 40.9366 6.27641C41.5371 6.87688 41.8748 7.69105 41.8756 8.54025V15.71C41.8756 15.9169 41.7934 16.1154 41.647 16.2618C41.5007 16.4082 41.3022 16.4904 41.0952 16.4904C40.8882 16.4904 40.6897 16.4082 40.5434 16.2618C40.397 16.1154 40.3148 15.9169 40.3148 15.71V8.54025C40.3148 7.63496 39.5781 6.89824 38.6728 6.89824H8.20284C7.29756 6.89824 6.56084 7.63496 6.56084 8.54025V52.0814C6.56084 52.9867 7.29756 53.7234 8.20284 53.7234H38.6728C39.5781 53.7234 40.3148 52.9867 40.3148 52.0814V47.0844C40.3148 46.8774 40.397 46.6789 40.5434 46.5326C40.6897 46.3862 40.8882 46.304 41.0952 46.304C41.3022 46.304 41.5007 46.3862 41.647 46.5326C41.7934 46.6789 41.8756 46.8774 41.8756 47.0844V52.0814C41.8748 52.9306 41.5371 53.7448 40.9366 54.3453C40.3362 54.9458 39.522 55.2835 38.6728 55.2843Z" fill="#663399"/>
<path d="M15.0087 50.0125H10.3823C10.1754 50.0125 9.97687 49.9303 9.83051 49.7839C9.68415 49.6376 9.60193 49.4391 9.60193 49.2321V44.6057C9.60193 44.3988 9.68415 44.2003 9.83051 44.0539C9.97687 43.9075 10.1754 43.8253 10.3823 43.8253H15.0087C15.2157 43.8253 15.4142 43.9075 15.5605 44.0539C15.7069 44.2003 15.7891 44.3988 15.7891 44.6057V49.2321C15.7891 49.4391 15.7069 49.6376 15.5605 49.7839C15.4142 49.9303 15.2157 50.0125 15.0087 50.0125ZM11.1628 48.4517H14.2283V45.3862H11.1628V48.4517ZM15.0087 27.8735H10.3823C10.1754 27.8735 9.97687 27.7913 9.83051 27.645C9.68415 27.4986 9.60193 27.3001 9.60193 27.0931V22.4676C9.60193 22.2606 9.68415 22.0621 9.83051 21.9157C9.97687 21.7694 10.1754 21.6872 10.3823 21.6872H15.0087C15.2157 21.6872 15.4142 21.7694 15.5605 21.9157C15.7069 22.0621 15.7891 22.2606 15.7891 22.4676V27.0931C15.7891 27.3001 15.7069 27.4986 15.5605 27.645C15.4142 27.7913 15.2157 27.8735 15.0087 27.8735ZM11.1628 26.3127H14.2283V23.248H11.1628V26.3127ZM15.0087 38.943H10.3823C10.1754 38.943 9.97687 38.8608 9.83051 38.7144C9.68415 38.5681 9.60193 38.3696 9.60193 38.1626V33.5363C9.60193 33.3293 9.68415 33.1308 9.83051 32.9844C9.97687 32.8381 10.1754 32.7558 10.3823 32.7558H15.0087C15.2157 32.7558 15.4142 32.8381 15.5605 32.9844C15.7069 33.1308 15.7891 33.3293 15.7891 33.5363V38.1626C15.7891 38.3696 15.7069 38.5681 15.5605 38.7144C15.4142 38.8608 15.2157 38.943 15.0087 38.943ZM11.1628 37.3822H14.2283V34.3167H11.1628V37.3822ZM15.0087 16.8048H10.3823C10.1754 16.8048 9.97687 16.7226 9.83051 16.5763C9.68415 16.4299 9.60193 16.2314 9.60193 16.0244V11.3981C9.60193 11.1911 9.68415 10.9926 9.83051 10.8463C9.97687 10.6999 10.1754 10.6177 10.3823 10.6177H15.0087C15.2157 10.6177 15.4142 10.6999 15.5605 10.8463C15.7069 10.9926 15.7891 11.1911 15.7891 11.3981V16.0244C15.7891 16.2314 15.7069 16.4299 15.5605 16.5763C15.4142 16.7226 15.2157 16.8048 15.0087 16.8048ZM11.1628 15.244H14.2283V12.1785H11.1628V15.244ZM36.5022 13.1197H20.4006C20.1936 13.1197 19.9951 13.0375 19.8488 12.8911C19.7024 12.7448 19.6202 12.5463 19.6202 12.3393C19.6202 12.1323 19.7024 11.9338 19.8488 11.7874C19.9951 11.6411 20.1936 11.5589 20.4006 11.5589H36.503C36.71 11.5589 36.9085 11.6411 37.0548 11.7874C37.2012 11.9338 37.2834 12.1323 37.2834 12.3393C37.2834 12.5463 37.2012 12.7448 37.0548 12.8911C36.9085 13.0375 36.7092 13.1197 36.5022 13.1197ZM27.6031 24.1923H20.4014C20.1944 24.1923 19.9959 24.1101 19.8495 23.9637C19.7032 23.8174 19.621 23.6189 19.621 23.4119C19.621 23.2049 19.7032 23.0064 19.8495 22.86C19.9959 22.7137 20.1944 22.6315 20.4014 22.6315H27.6031C27.8101 22.6315 28.0086 22.7137 28.1549 22.86C28.3013 23.0064 28.3835 23.2049 28.3835 23.4119C28.3835 23.6189 28.3013 23.8174 28.1549 23.9637C28.0086 24.1101 27.8101 24.1923 27.6031 24.1923ZM25.7145 35.2618H20.4014C20.1944 35.2618 19.9959 35.1796 19.8495 35.0332C19.7032 34.8868 19.621 34.6883 19.621 34.4814C19.621 34.2744 19.7032 34.0759 19.8495 33.9295C19.9959 33.7832 20.1944 33.7009 20.4014 33.7009H25.7145C25.9215 33.7009 26.12 33.7832 26.2663 33.9295C26.4127 34.0759 26.4949 34.2744 26.4949 34.4814C26.4949 34.6883 26.4127 34.8868 26.2663 35.0332C26.12 35.1796 25.9215 35.2618 25.7145 35.2618ZM34.3209 46.3227H20.4014C20.1944 46.3227 19.9959 46.2404 19.8495 46.0941C19.7032 45.9477 19.621 45.7492 19.621 45.5422C19.621 45.3353 19.7032 45.1368 19.8495 44.9904C19.9959 44.8441 20.1944 44.7618 20.4014 44.7618H34.3209C34.5279 44.7618 34.7264 44.8441 34.8728 44.9904C35.0191 45.1368 35.1014 45.3353 35.1014 45.5422C35.1014 45.7492 35.0191 45.9477 34.8728 46.0941C34.7264 46.2404 34.5279 46.3227 34.3209 46.3227ZM37.651 37.3088H37.6229C37.5189 37.3049 37.4167 37.2802 37.3224 37.2362C37.228 37.1923 37.1434 37.1299 37.0735 37.0528L33.5397 33.1624C33.4075 33.0082 33.3407 32.8086 33.3533 32.6058C33.366 32.4031 33.4572 32.2133 33.6076 32.0768C33.758 31.9402 33.9556 31.8677 34.1586 31.8745C34.3617 31.8814 34.554 31.9672 34.6948 32.1136L37.6916 35.4124L47.8074 25.7976C47.9574 25.655 48.158 25.5779 48.365 25.5831C48.5719 25.5884 48.7683 25.6757 48.9109 25.8257C49.0535 25.9758 49.1307 26.1763 49.1254 26.3833C49.1201 26.5902 49.0329 26.7866 48.8828 26.9292L38.1887 37.0926C38.0438 37.2308 37.8512 37.3087 37.651 37.3088Z" fill="#663399"/>
</svg>
