<svg width="47" height="40" viewBox="0 0 47 40" fill="none" xmlns="http://www.w3.org/2000/svg">
<path d="M23.153 6.79413C24.967 6.79413 26.7403 7.33204 28.2486 8.33986C29.7569 9.34767 30.9324 10.7801 31.6266 12.456C32.3208 14.132 32.5025 15.9761 32.1486 17.7553C31.7947 19.5344 30.9211 21.1687 29.6384 22.4514C28.3557 23.7341 26.7215 24.6076 24.9423 24.9615C23.1632 25.3154 21.319 25.1338 19.6431 24.4396C17.9672 23.7454 16.5347 22.5698 15.5269 21.0615C14.5191 19.5532 13.9812 17.7799 13.9812 15.9659C13.9812 14.7615 14.2184 13.5688 14.6794 12.456C15.1403 11.3433 15.8159 10.3322 16.6676 9.48049C18.3876 7.76044 20.7205 6.79413 23.153 6.79413Z" fill="#663399"/>
<path d="M40.7146 0.879578C43.6016 4.23992 45.4639 8.358 46.0805 12.7451C46.6971 17.1322 46.0421 21.6041 44.1932 25.63C42.3444 29.656 39.3792 33.067 35.6498 35.4582C31.9203 37.8494 27.5831 39.1204 23.1529 39.1204C18.7227 39.1204 14.3855 37.8494 10.6561 35.4582C6.92663 33.067 3.96152 29.656 2.11264 25.63C0.263768 21.6041 -0.391238 17.1322 0.225361 12.7451C0.84196 8.358 2.70427 4.23992 5.59128 0.879578L12.0174 7.31158C10.3948 9.39646 9.39014 11.895 9.11769 14.5228C8.84524 17.1506 9.31598 19.8021 10.4763 22.1755C11.6367 24.5489 13.44 26.5489 15.6811 27.9478C17.9222 29.3467 20.511 30.0884 23.1529 30.0884C25.7948 30.0884 28.3836 29.3467 30.6247 27.9478C32.8658 26.5489 34.6692 24.5489 35.8295 22.1755C36.9899 19.8021 37.4606 17.1506 37.1882 14.5228C36.9157 11.895 35.911 9.39646 34.2884 7.31158L40.7146 0.879578Z" fill="#663399"/>
</svg>
