<svg width="60" height="60" viewBox="0 0 60 60" fill="none" xmlns="http://www.w3.org/2000/svg">
<g clip-path="url(#clip0_30_3668)">
<path d="M27.4847 0C28.7992 0.26687 30.146 0.4275 31.4229 0.81752C41.1192 3.77919 47.2245 10.2006 49.2496 20.1483C50.856 28.0394 48.7639 35.1175 43.5519 41.2592C43.4508 41.3783 43.3489 41.4968 43.2495 41.6174C43.2156 41.6677 43.1845 41.7199 43.1564 41.7736C43.2859 41.9111 43.4245 42.0656 43.5709 42.2123C48.8161 47.4658 54.0618 52.7188 59.308 57.9713C60.0597 58.724 60.1904 59.2487 59.7419 59.7157C59.2772 60.1996 58.7499 60.0721 57.9627 59.2844C52.7289 54.0472 47.4949 48.81 42.2609 43.573C42.1122 43.4243 41.9555 43.2837 41.8459 43.1803C40.5642 44.1158 39.3643 45.087 38.0742 45.9179C33.7044 48.6611 28.5894 49.9769 23.4383 49.6828C18.2873 49.3887 13.3553 47.4994 9.32605 44.2767C4.28745 40.3394 1.01463 34.5657 0.224446 28.2202C-0.631531 22.2279 0.73802 16.1296 4.07409 11.0786C7.41015 6.02769 12.4814 2.37432 18.3289 0.80945C19.6041 0.46913 20.916 0.26648 22.2109 0H27.4847ZM24.9044 1.87684C20.3549 1.87305 15.9066 3.21907 12.1225 5.74454C8.33838 8.27 5.38858 11.8614 3.64646 16.0641C1.90435 20.2667 1.44826 24.8918 2.3359 29.3538C3.22355 33.8158 5.41503 37.9142 8.63296 41.1302C11.8509 44.3462 15.9506 46.5351 20.4132 47.4201C24.8757 48.305 29.5005 47.8461 33.7021 46.1014C37.9037 44.3567 41.4933 41.4047 44.0165 37.6191C46.5396 33.8334 47.8829 29.3843 47.8764 24.8348C47.8666 18.7466 45.4427 12.9107 41.1364 8.60695C36.83 4.30321 30.9926 1.88292 24.9044 1.87684Z" fill="#663399"/>
<path d="M11.7805 28.5737C11.7805 27.6358 11.7607 26.6972 11.7896 25.7602C11.815 25.591 11.7792 25.4182 11.6887 25.273C11.5982 25.1277 11.4589 25.0195 11.2958 24.9677C9.52323 24.1569 7.76985 23.3042 6.00618 22.4738C5.57995 22.2731 5.21353 22.0412 5.21036 21.5007C5.20719 20.9599 5.56736 20.725 5.99636 20.5235C12.1188 17.6473 18.239 14.7666 24.3571 11.8811C24.5596 11.7875 24.7818 11.7445 25.0047 11.7556C25.2275 11.7668 25.4443 11.8319 25.6364 11.9453C30.5353 14.2625 35.4364 16.5749 40.3399 18.8825C41.5037 19.4312 42.6679 19.979 43.8325 20.526C44.2599 20.7259 44.6147 20.9737 44.6133 21.5125C44.612 22.0543 44.246 22.2906 43.8209 22.4898C42.038 23.325 40.2609 24.173 38.4719 24.995C38.3273 25.0414 38.2033 25.1367 38.1214 25.2646C38.0395 25.3925 38.0048 25.5449 38.0232 25.6957C38.0442 27.3954 37.9807 29.0976 38.0483 30.7949C38.0764 31.4597 37.9591 32.1226 37.7046 32.7374C37.45 33.3522 37.0643 33.904 36.5744 34.3542C35.0497 35.8248 33.188 36.8994 31.1519 37.484C26.4138 39.0603 21.2546 38.784 16.7119 36.7108C15.4187 36.1499 14.2417 35.3521 13.2417 34.3586C12.745 33.9142 12.3548 33.3635 12.1002 32.7475C11.8456 32.1315 11.7331 31.4661 11.7711 30.8006C11.8246 30.0619 11.7805 29.3162 11.7805 28.5737ZM41.4425 21.5234C41.2263 21.4087 41.0765 21.3213 40.9202 21.2476C35.7361 18.8046 30.5529 16.3597 25.3707 13.9128C25.2295 13.8352 25.0708 13.7948 24.9097 13.7954C24.7485 13.796 24.5901 13.8374 24.4494 13.9159C20.434 15.8211 16.4139 17.7163 12.3891 19.6016C11.069 20.2231 9.75032 20.8476 8.37093 21.499C8.55685 21.5956 8.67101 21.6599 8.78921 21.7156C14.0437 24.1917 19.3006 26.6624 24.5601 29.1277C24.8212 29.2171 25.1068 29.2022 25.3572 29.0861C28.5923 27.5837 31.8168 26.0583 35.0437 24.5383C37.156 23.5432 39.2682 22.5479 41.4425 21.5234ZM13.6556 26.1281C13.6556 27.6189 13.7489 29.0486 13.6292 30.4602C13.5729 31.0649 13.684 31.6734 13.9504 32.2192C14.2168 32.765 14.6282 33.2269 15.1396 33.5545C15.5349 33.8724 15.9546 34.1587 16.3949 34.4107C18.6879 35.688 21.2386 36.4338 23.8586 36.593C26.4785 36.7521 29.1007 36.3206 31.5316 35.3303C33.0771 34.8143 34.4615 33.9047 35.5487 32.691C35.8485 32.3845 36.0478 31.9938 36.1197 31.5711C36.1797 29.7814 36.1463 27.9886 36.1463 26.1299C35.8988 26.2337 35.7044 26.3069 35.517 26.395C32.2356 27.9377 28.9509 29.4737 25.6782 31.0349C25.44 31.1617 25.174 31.2275 24.9041 31.2264C24.6342 31.2252 24.3688 31.1572 24.1316 31.0283C20.8246 29.4481 17.5035 27.8978 14.1861 26.3393C14.0343 26.2679 13.8741 26.2145 13.6556 26.1281Z" fill="#663399"/>
</g>
<defs>
<clipPath id="clip0_30_3668">
<rect width="60" height="60" fill="white"/>
</clipPath>
</defs>
</svg>
