<svg width="18" height="18" viewBox="0 0 18 18" fill="none" xmlns="http://www.w3.org/2000/svg">
<g clip-path="url(#clip0_43_4102)">
<path d="M9 0C7.21997 0 5.47991 0.527841 3.99987 1.51677C2.51983 2.50571 1.36628 3.91131 0.685088 5.55585C0.00389957 7.20038 -0.17433 9.00998 0.172937 10.7558C0.520203 12.5016 1.37737 14.1053 2.63604 15.364C3.89472 16.6226 5.49836 17.4798 7.24419 17.8271C8.99002 18.1743 10.7996 17.9961 12.4442 17.3149C14.0887 16.6337 15.4943 15.4802 16.4832 14.0001C17.4722 12.5201 18 10.78 18 9C17.9973 6.61388 17.0482 4.32628 15.361 2.63904C13.6737 0.951797 11.3861 0.00271395 9 0ZM9 17.2346C6.81605 17.2346 4.72155 16.3671 3.17725 14.8228C1.63295 13.2785 0.765361 11.184 0.765343 9.00007C0.765325 6.81612 1.63288 4.72161 3.17715 3.17731C4.72142 1.63301 6.81592 0.765426 8.99987 0.765408C11.1838 0.765408 13.2785 1.63298 14.8227 3.17726C16.367 4.72155 17.2346 6.81605 17.2346 9C17.2346 11.184 16.367 13.2785 14.8227 14.8227C13.2785 16.367 11.184 17.2346 9 17.2346Z" fill="#663399"/>
<path d="M10.3814 4.5274H7.60433C7.56075 4.52338 7.51681 4.52805 7.47505 4.54116C7.43329 4.55426 7.39454 4.57552 7.36107 4.60372C7.3276 4.63192 7.30006 4.66648 7.28005 4.70541C7.26005 4.74434 7.24797 4.78685 7.24453 4.83048C7.24357 4.84521 7.24357 4.85998 7.24453 4.8747L7.24495 8.95324H6.49774C6.45333 8.95302 6.40931 8.96157 6.36821 8.97841C6.32712 8.99524 6.28975 9.02002 6.25826 9.05134C6.22677 9.08265 6.20177 9.11987 6.1847 9.16087C6.16763 9.20187 6.15882 9.24584 6.15878 9.29025C6.15875 9.33466 6.16748 9.37864 6.18449 9.41966C6.20149 9.46069 6.22643 9.49795 6.25787 9.52931C6.28931 9.56068 6.32664 9.58552 6.36771 9.60242C6.40878 9.61933 6.45278 9.62795 6.49719 9.6278H7.24495V11.1662H6.49787C6.40895 11.1669 6.32394 11.2028 6.26134 11.266C6.19874 11.3291 6.16362 11.4144 6.16364 11.5034C6.16366 11.5923 6.19881 11.6776 6.26143 11.7407C6.32406 11.8039 6.40909 11.8397 6.49801 11.8404H7.24495V13.1299C7.24369 13.1731 7.25095 13.216 7.26632 13.2563C7.28169 13.2966 7.30486 13.3335 7.33451 13.3648C7.36416 13.3962 7.3997 13.4213 7.4391 13.4389C7.4785 13.4565 7.52097 13.4661 7.5641 13.4672L7.59953 13.4694C7.68792 13.4832 7.77818 13.4614 7.85049 13.4087C7.9228 13.356 7.97128 13.2768 7.98529 13.1885L7.98556 11.9069H10.3814C10.4302 11.9071 10.4785 11.8977 10.5236 11.8791C10.5687 11.8606 10.6097 11.8334 10.6443 11.7989C10.6788 11.7645 10.7062 11.7236 10.7249 11.6786C10.7436 11.6336 10.7533 11.5853 10.7533 11.5365C10.7533 11.4878 10.7436 11.4395 10.7249 11.3944C10.7062 11.3494 10.6788 11.3085 10.6443 11.2741C10.6097 11.2397 10.5687 11.2124 10.5236 11.1939C10.4785 11.1754 10.4302 11.1659 10.3814 11.1661H7.98556V9.69413H10.3814C11.8061 9.69413 12.6836 8.53521 12.6836 7.11083C12.6836 5.68632 11.8061 4.5274 10.3814 4.5274ZM11.8332 7.53806C11.7522 7.88087 11.5773 8.19435 11.3282 8.44345C11.0791 8.69256 10.7657 8.86745 10.4229 8.94857L10.4023 8.95324H7.98556V5.26828L10.4229 5.27295C10.6642 5.32904 10.8922 5.43213 11.0937 5.57633C11.2952 5.72052 11.4663 5.90301 11.5973 6.11335C11.7282 6.32369 11.8165 6.55778 11.857 6.80223C11.8975 7.04669 11.8894 7.29672 11.8332 7.53806Z" fill="#663399"/>
</g>
<defs>
<clipPath id="clip0_43_4102">
<rect width="18" height="18" fill="white"/>
</clipPath>
</defs>
</svg>
