<svg width="60" height="70" viewBox="0 0 60 70" fill="none" xmlns="http://www.w3.org/2000/svg">
<g clip-path="url(#clip0_30_3660)">
<path d="M41.4606 62.6535C42.8137 62.387 44.1855 62.2264 45.5635 62.1731C45.9277 62.1495 46.2919 62.1259 46.6541 62.0985C47.3279 62.0466 48.0094 62.0325 48.6909 62.0202C49.7505 62.0355 50.8093 61.9524 51.8535 61.772C54.1519 61.3076 56.2186 60.062 57.7028 58.2467C59.1871 56.4315 59.9972 54.1585 59.9958 51.8137V1.77599C60.0368 0.740148 59.7752 0.297956 59.2938 0.00537109H0.705641C0.221346 0.296536 -0.0403336 0.729759 0.00506937 1.71039L0.0450632 51.4871C0.0357975 52.5056 0.157878 53.5211 0.408287 54.5083C1.62099 59.0415 5.65699 62.0164 10.6899 62.0882C11.1752 62.0957 11.6614 62.0938 12.1457 62.0948C12.2605 62.0948 12.3757 62.0938 12.4909 62.0938C13.8416 62.0709 15.1925 62.132 16.5357 62.2769C19.0116 62.555 21.4046 63.3359 23.5679 64.5718C25.7313 65.8077 27.6193 67.4725 29.1163 69.4641C29.212 69.6116 29.3395 69.7357 29.4895 69.8275C29.6394 69.9193 29.808 69.9764 29.9829 69.9946C30.1662 69.9761 30.3434 69.9181 30.5022 69.8246C30.6609 69.731 30.7976 69.6042 30.9026 69.4528L30.9895 69.3433C33.5734 65.9393 37.2858 63.5674 41.4606 62.6535ZM31.137 66.2306L29.9697 67.232L28.6252 66.0126C28.3962 65.804 28.1775 65.603 27.9529 65.4085C24.0203 61.9494 18.9326 60.0922 13.6963 60.2043H13.6875L12.8132 60.2081C11.9446 60.2166 11.0478 60.2204 10.1446 60.1732C7.98221 60.1157 5.92568 59.225 4.40444 57.6872C2.8832 56.1493 2.01489 54.0833 1.98082 51.9204C1.95642 49.0239 1.96183 46.1263 1.96716 43.2297L1.97156 2.00916H57.9288L57.9951 3.39095C58.0108 3.70713 58.0293 23.0673 58.0293 23.2589L58.0313 32.5579C58.0333 41.8574 58.0352 42.4586 58.0255 51.7581C58.046 53.7148 57.3742 55.6158 56.1289 57.1253C54.8836 58.6347 53.1448 59.6554 51.2199 60.0071C50.3112 60.1666 49.3883 60.2302 48.4664 60.1968H48.3639C45.6798 60.0808 42.9926 60.3346 40.3778 60.9509C37.0543 61.8559 34.0034 63.5622 31.4924 65.9202C31.383 66.023 31.2668 66.1221 31.137 66.2306Z" fill="#663399"/>
<path d="M49.9125 18.7032C49.8027 18.6917 49.693 18.683 49.5833 18.6744C49.2948 18.6627 49.0083 18.6211 48.7284 18.5502C47.0986 18.0684 45.4774 17.5596 43.8554 17.0513L43.53 16.9493C41.2812 16.118 38.8967 15.7147 36.4996 15.7604C35.3108 15.8034 34.1454 16.1035 33.0837 16.6399C32.022 17.1764 31.089 17.9365 30.3491 18.8679C30.2278 19.0195 30.1123 19.1765 29.993 19.3396L29.9795 19.3204C28.9364 17.777 27.3866 16.6468 25.5984 16.1252C23.6558 15.5744 21.5997 15.5637 19.6515 16.0945C18.1964 16.4603 16.7437 16.9223 15.3397 17.369C14.8415 17.5278 14.3433 17.6862 13.8441 17.8407L13.4432 17.9664C12.3473 18.3681 11.2015 18.6175 10.0378 18.7076C9.83721 18.7155 9.64179 18.7734 9.46929 18.876C9.29679 18.9787 9.15268 19.1228 9.05008 19.2953L8.9986 19.3709V46.8868L9.05159 46.9638C9.15161 47.132 9.29184 47.2728 9.4597 47.3734C9.62755 47.4741 9.81778 47.5315 10.0133 47.5404C10.0465 47.5404 10.0802 47.5385 10.1144 47.5356C10.2145 47.5269 10.3156 47.5221 10.4166 47.5183C10.6711 47.5166 10.9245 47.4856 11.1719 47.4259L11.2961 47.3912C12.8993 46.9426 14.5565 46.4786 16.1734 45.9703L16.6071 45.8327C18.5348 45.1179 20.5565 44.6882 22.6083 44.5571C24.0383 44.4728 25.4583 44.8435 26.6645 45.616C26.9509 45.8193 27.223 46.0418 27.479 46.2822C27.6002 46.391 27.7216 46.4988 27.8448 46.6037C28.4273 47.1703 29.1972 47.5037 30.0089 47.5409C30.8037 47.5251 31.5603 47.1967 32.1147 46.6269C32.2004 46.5557 32.2798 46.4767 32.3592 46.3977L32.4256 46.3323C33.1915 45.5833 34.144 45.0531 35.1842 44.7968C36.7696 44.416 38.4261 44.4472 39.9961 44.8873C41.3746 45.2464 42.7618 45.6882 44.1028 46.1157C44.6458 46.289 45.1887 46.4622 45.7326 46.6297L45.9416 46.6952C47.178 47.1374 48.4665 47.4176 49.7749 47.5289C49.9381 47.552 50.1043 47.5406 50.2628 47.4955C50.4213 47.4504 50.5686 47.3726 50.6952 47.267C50.8019 47.1505 50.8832 47.013 50.9341 46.8634C50.985 46.7137 51.0042 46.5552 50.9907 46.3977C50.9927 37.5566 50.9927 28.7157 50.9907 19.8748C51.0121 19.724 50.9998 19.5703 50.9546 19.4248C50.9093 19.2793 50.8324 19.1457 50.7292 19.0336C50.626 18.9215 50.4992 18.8337 50.358 18.7765C50.2168 18.7194 50.0646 18.6944 49.9125 18.7032ZM29.0385 43.6493C29.0383 43.6926 29.0381 44.3553 29.0384 45.074C28.196 44.2379 27.1875 43.588 26.0781 43.1662C24.9688 42.7443 23.7833 42.56 22.5982 42.6251C20.4675 42.7262 18.3644 43.1498 16.3607 43.8813C14.7747 44.3906 13.1871 44.897 11.5945 45.388C11.3816 45.4461 11.1645 45.4873 10.9452 45.5112L10.9292 45.5131L10.9307 20.7744C10.9385 20.7061 10.9256 20.637 10.8937 20.5761C10.9192 20.565 10.9463 20.5577 10.974 20.5545L11.1584 20.5227C11.7073 20.4395 12.2504 20.3215 12.7843 20.1694C13.7354 19.8763 14.6813 19.5672 15.6275 19.2587C16.3313 19.0286 17.0355 18.799 17.7411 18.5757C19.5105 17.9366 21.3826 17.6297 23.2635 17.6703C24.5107 17.6769 25.7274 18.0568 26.7567 18.7612C27.786 19.4656 28.5808 20.4621 29.0385 21.6223L29.0395 43.5549L29.0385 43.6493ZM49.0606 40.1154V45.3918C49.0606 45.4342 49.0596 45.4775 49.0577 45.5208C49.031 45.5174 49.0046 45.5119 48.9787 45.5044L47.8312 45.1761C46.8493 44.897 45.8337 44.6081 44.8498 44.2885L44.4397 44.1547C42.4442 43.4153 40.3677 42.916 38.2541 42.6674C36.2768 42.4243 34.2744 42.8362 32.5537 43.84C31.9835 44.2134 31.4475 44.6365 30.952 45.1044C30.952 44.3734 30.9517 43.6836 30.9512 43.6157V21.6397L31.0914 21.3751C31.3293 20.8834 31.6143 20.416 31.9424 19.9793C32.5933 19.1971 33.4192 18.5792 34.3532 18.1754C35.2872 17.7716 36.3032 17.5933 37.3189 17.6549C39.2688 17.7473 41.1931 18.1382 43.0246 18.8139C43.5338 18.9771 44.0393 19.1528 44.5446 19.329C45.9455 19.8657 47.394 20.2684 48.8709 20.5319C48.9323 20.535 48.9924 20.5512 49.047 20.5795C49.0677 20.6402 49.075 20.7048 49.0682 20.7686C49.0615 27.2175 49.059 33.6665 49.0606 40.1154Z" fill="#663399"/>
</g>
<defs>
<clipPath id="clip0_30_3660">
<rect width="60" height="69.9892" fill="white" transform="translate(0 0.00537109)"/>
</clipPath>
</defs>
</svg>
