<svg width="18" height="18" viewBox="0 0 18 18" fill="none" xmlns="http://www.w3.org/2000/svg">
<g clip-path="url(#clip0_43_4113)">
<g clip-path="url(#clip1_43_4113)">
<path d="M15.3348 2.37258C15.3232 2.27381 15.3163 2.19114 15.3035 2.10939C15.2169 1.55588 15.1244 1.00324 15.044 0.448867C15.0335 0.400177 15.033 0.349885 15.0424 0.30099C15.0519 0.252095 15.071 0.205597 15.0988 0.164268C15.1266 0.122939 15.1624 0.0876264 15.2041 0.0604341C15.2458 0.0332419 15.2926 0.0147271 15.3416 0.00599369C15.3906 -0.00273974 15.4409 -0.00151306 15.4894 0.00960059C15.538 0.0207143 15.5838 0.0414873 15.6241 0.0706815C15.6645 0.0998756 15.6985 0.136893 15.7242 0.179527C15.75 0.222161 15.7668 0.269538 15.7739 0.318835C15.9344 1.27806 16.089 2.23826 16.2377 3.19944C16.2485 3.24785 16.2487 3.29801 16.2385 3.34653C16.2282 3.39505 16.2076 3.4408 16.1782 3.48069C16.1487 3.52058 16.111 3.55368 16.0676 3.57775C16.0243 3.60182 15.9762 3.6163 15.9268 3.62022C14.9637 3.77862 13.9996 3.93077 13.0345 4.07668C12.9854 4.08539 12.935 4.08412 12.8865 4.07293C12.8379 4.06175 12.7921 4.04088 12.7518 4.01159C12.7114 3.98229 12.6774 3.94516 12.6518 3.90242C12.6261 3.85968 12.6094 3.81221 12.6025 3.76284C12.5956 3.71348 12.5987 3.66323 12.6117 3.61511C12.6247 3.56698 12.6473 3.52197 12.678 3.48276C12.7088 3.44355 12.7472 3.41095 12.7908 3.38691C12.8345 3.36287 12.8826 3.34788 12.9322 3.34284C13.4863 3.24829 14.0424 3.16527 14.5977 3.07715C14.6815 3.06384 14.7649 3.04816 14.9201 3.02109C14.6173 2.77827 14.3645 2.55768 14.0939 2.3614C12.5255 1.23105 10.6095 0.688286 8.68125 0.828112C6.75302 0.967938 4.93538 1.78144 3.54644 3.12625C2.15751 4.47105 1.28576 6.26149 1.08377 8.18421C0.881781 10.1069 1.36242 12.0394 2.44156 13.6435C3.0571 14.5444 3.84483 15.3146 4.75937 15.9097C5.6739 16.5047 6.69716 16.9129 7.77017 17.1108C8.84319 17.3086 9.94474 17.2921 11.0114 17.0623C12.078 16.8325 13.0886 16.3938 13.9849 15.7717C14.3533 15.5124 14.6915 15.209 15.0335 14.9144C15.2598 14.7194 15.4652 14.6851 15.6315 14.8474C15.8038 15.0154 15.7757 15.2365 15.5542 15.456C13.9605 17.0114 11.8462 17.9198 9.62091 18.0053C7.39565 18.0907 5.2179 17.3471 3.50966 15.9184C1.80141 14.4898 0.6843 12.4779 0.374793 10.2727C0.0652862 8.06738 0.585422 5.82571 1.83441 3.98205C3.1723 2.04241 5.21494 0.702103 7.52685 0.246882C9.83876 -0.20834 12.237 0.257536 14.2104 1.54519C14.5905 1.79861 14.9475 2.08632 15.3348 2.37258Z" fill="#663399"/>
<path d="M17.3394 7.07C17.2716 6.99987 17.2338 6.90611 17.2339 6.80856C17.234 6.71101 17.2721 6.61734 17.34 6.54736C17.4135 6.47716 17.5111 6.43773 17.6127 6.43714C17.7143 6.43655 17.8123 6.47485 17.8866 6.5442C17.9547 6.61425 17.9923 6.7083 17.9915 6.80595C17.9906 6.9036 17.9513 6.99697 17.882 7.0658C17.8105 7.13815 17.7133 7.17922 17.6116 7.18C17.5099 7.18079 17.412 7.14123 17.3394 7.07Z" fill="#663399"/>
<path d="M17.8715 11.0017C17.9059 11.039 17.9326 11.0826 17.95 11.1303C17.9674 11.1779 17.9752 11.2285 17.9728 11.2792C17.9705 11.3298 17.9581 11.3795 17.9364 11.4253C17.9147 11.4712 17.8842 11.5122 17.8464 11.5462C17.8108 11.5796 17.7688 11.6056 17.7229 11.6224C17.677 11.6392 17.6282 11.6466 17.5793 11.6441C17.5305 11.6416 17.4827 11.6292 17.4388 11.6077C17.3949 11.5863 17.3557 11.5561 17.3237 11.5192C17.2573 11.4461 17.2222 11.35 17.2259 11.2513C17.2297 11.1527 17.272 11.0595 17.3437 10.9917C17.4155 10.9239 17.511 10.887 17.6096 10.8889C17.7083 10.8907 17.8023 10.9313 17.8715 11.0017Z" fill="#663399"/>
<path d="M17.636 8.766C17.7074 8.69789 17.8027 8.66071 17.9014 8.66254C18 8.66437 18.094 8.70507 18.1628 8.77579C18.1972 8.8102 18.2245 8.85115 18.2429 8.89623C18.2613 8.94132 18.2705 8.98963 18.27 9.03832C18.2694 9.08702 18.2592 9.13512 18.2398 9.1798C18.2204 9.22447 18.1923 9.26482 18.1571 9.29848C18.0857 9.36644 17.9907 9.404 17.8922 9.40323C17.7936 9.40246 17.6992 9.36341 17.6289 9.29435C17.5622 9.22214 17.5257 9.12707 17.527 9.02876C17.5283 8.93045 17.5673 8.83639 17.636 8.766Z" fill="#663399"/>
<path d="M17.0054 13.6013C16.9341 13.6692 16.8387 13.7061 16.7402 13.704C16.6417 13.702 16.548 13.661 16.4796 13.5902C16.4446 13.5564 16.4169 13.5158 16.3982 13.4709C16.3794 13.426 16.37 13.3778 16.3705 13.3291C16.371 13.2805 16.3814 13.2325 16.401 13.188C16.4207 13.1435 16.4492 13.1035 16.4849 13.0704C16.5549 13.0012 16.6496 12.9627 16.7481 12.9633C16.8466 12.9639 16.9408 13.0036 17.01 13.0736C17.0771 13.1454 17.114 13.2402 17.1132 13.3384C17.1123 13.4366 17.0738 13.5307 17.0054 13.6013Z" fill="#663399"/>
<path d="M16.4934 4.47662C16.527 4.44119 16.5673 4.41283 16.612 4.3932C16.6567 4.37358 16.7048 4.36309 16.7537 4.36235C16.8025 4.36161 16.8509 4.37063 16.8962 4.38889C16.9415 4.40715 16.9826 4.43427 17.0173 4.46867C17.0867 4.53827 17.1264 4.6322 17.1277 4.73053C17.1291 4.82886 17.0921 4.92386 17.0246 4.99536C16.9534 5.06336 16.8589 5.10167 16.7605 5.10247C16.662 5.10328 16.5669 5.06653 16.4946 4.9997C16.4597 4.96568 16.432 4.92504 16.4131 4.88018C16.3941 4.83531 16.3843 4.78712 16.3842 4.73841C16.3841 4.68971 16.3937 4.64147 16.4124 4.59652C16.4312 4.55156 16.4587 4.5108 16.4934 4.47662Z" fill="#663399"/>
<path d="M8.89287 5.81327C8.89291 4.77824 8.89262 3.7432 8.892 2.70815C8.89168 2.53025 8.93712 2.36478 9.11662 2.31501C9.17647 2.2957 9.23977 2.28941 9.30225 2.29656C9.36474 2.30372 9.42497 2.32415 9.47892 2.35649C9.57802 2.46947 9.63378 2.61397 9.63626 2.76423C9.64646 4.45292 9.64286 6.14169 9.64286 7.83044C9.64286 8.07169 9.65326 8.31354 9.63923 8.55398C9.6299 8.62167 9.64383 8.69052 9.67872 8.74927C9.71361 8.80802 9.76741 8.85319 9.83131 8.87738C11.0067 9.50607 12.1771 10.144 13.3487 10.7795C13.4397 10.8241 13.5276 10.8748 13.6117 10.9313C13.6898 10.9787 13.746 11.0549 13.7681 11.1435C13.7903 11.2321 13.7766 11.3258 13.73 11.4043C13.6923 11.4876 13.624 11.5532 13.5392 11.5873C13.4544 11.6215 13.3597 11.6216 13.2748 11.5877C13.2013 11.5617 13.1308 11.5281 13.0644 11.4872C11.7766 10.7879 10.491 10.0844 9.19999 9.39107C9.1007 9.34744 9.01744 9.27401 8.96176 9.18093C8.90608 9.08786 8.88075 8.97977 8.88927 8.87165C8.89776 7.85226 8.89284 6.83275 8.89287 5.81327Z" fill="#663399"/>
</g>
</g>
<defs>
<clipPath id="clip0_43_4113">
<rect width="18" height="18" fill="white"/>
</clipPath>
<clipPath id="clip1_43_4113">
<rect width="18" height="18" fill="white" transform="translate(0.269989)"/>
</clipPath>
</defs>
</svg>
