<svg width="60" height="60" viewBox="0 0 60 60" fill="none" xmlns="http://www.w3.org/2000/svg">
<g clip-path="url(#clip0_30_3676)">
<path d="M49.4532 0C49.9988 0.135906 50.5339 0.310839 51.0543 0.52345C52.0753 0.968725 52.9381 1.71195 53.5295 2.65579C54.121 3.59964 54.4137 4.7001 54.3692 5.81308C54.3868 11.7925 54.375 17.772 54.375 23.7514C54.375 28.6561 54.3748 33.5608 54.3742 38.4655C54.3901 38.6799 54.3811 38.8953 54.3476 39.1076C54.3054 39.3196 54.1907 39.5102 54.023 39.6465C53.8554 39.7829 53.6455 39.8565 53.4294 39.8547C53.2133 39.8529 53.0046 39.7757 52.8394 39.6365C52.6741 39.4973 52.5625 39.3048 52.524 39.0922C52.4936 38.8794 52.4858 38.664 52.5008 38.4496C52.4999 31.5126 52.4997 24.5757 52.5001 17.6388V16.9168H1.87553V17.5175C1.87553 27.835 1.87581 38.1524 1.87637 48.4699C1.837 49.014 1.91538 49.5602 2.10618 50.0713C2.29698 50.5823 2.59572 51.0462 2.98202 51.4314C3.36833 51.8166 3.83313 52.1139 4.34475 52.3032C4.85637 52.4925 5.40279 52.5693 5.94676 52.5283C15.9459 52.5303 25.9451 52.5306 35.9443 52.5292C36.1201 52.5292 36.2961 52.524 36.4716 52.5308C36.6014 52.5192 36.7322 52.5347 36.8558 52.5764C36.9793 52.618 37.0928 52.6849 37.1891 52.7728C37.2854 52.8607 37.3623 52.9676 37.4151 53.0868C37.4678 53.206 37.4952 53.3349 37.4955 53.4653C37.4958 53.5956 37.4689 53.7246 37.4167 53.8441C37.3644 53.9635 37.2879 54.0707 37.192 54.159C37.0961 54.2473 36.9828 54.3147 36.8595 54.3568C36.7361 54.399 36.6054 54.4151 36.4755 54.404C36.3975 54.4074 36.3192 54.4052 36.2411 54.4052C26.1052 54.4052 15.9694 54.4044 5.83346 54.4029C4.54281 54.4441 3.27724 54.0403 2.249 53.2591C1.22076 52.478 0.492371 51.367 0.186001 50.1126C0.0639915 49.6003 0.00422643 49.0752 0.00800073 48.5485C-0.0012726 34.3229 -0.00319594 20.0973 0.00223073 5.8717C-0.0523672 4.4998 0.39601 3.15519 1.26308 2.09063C2.13015 1.02607 3.3562 0.314867 4.71077 0.09071C4.78416 0.0676306 4.85505 0.0372416 4.92237 0L49.4532 0ZM52.5001 14.9829V14.297C52.5001 11.5613 52.5 8.82562 52.4999 6.08993C52.4993 3.40054 50.9772 1.8763 48.2909 1.87624C34.2296 1.87588 20.1683 1.8759 6.10692 1.87631C5.89211 1.87631 5.67697 1.87276 5.46255 1.88286C4.52443 1.92483 3.63642 2.31814 2.97493 2.98467C2.31343 3.65119 1.92686 4.54216 1.892 5.48057C1.8519 8.60632 1.8845 11.733 1.88874 14.8593C1.88879 14.8923 1.92027 14.9253 1.94956 14.9829H52.5001Z" fill="#663399"/>
<path d="M60 49.7149C59.7225 49.976 59.4169 50.2057 59.0889 50.3997C57.5471 51.1019 55.9867 51.7635 54.3796 52.4629C54.8033 53.454 55.2155 54.4159 55.6258 55.3786C56.0488 56.3712 55.9129 56.7196 54.9158 57.1511C52.8581 58.0415 50.7989 58.9285 48.7383 59.812C47.879 60.1804 47.4875 60.0256 47.1207 59.1803C46.6953 58.2002 46.2768 57.2171 45.8329 56.1831C44.4174 56.7989 43.0468 57.3962 41.6752 57.9912C41.3593 58.1438 41.0348 58.2776 40.7032 58.3921C40.5649 58.444 40.4161 58.4614 40.2696 58.4426C40.1232 58.4237 39.9835 58.3694 39.8629 58.2842C39.7422 58.199 39.6443 58.0856 39.5776 57.9539C39.5108 57.8222 39.4773 57.6761 39.48 57.5285C39.4685 57.3729 39.4742 57.216 39.4742 57.0597C39.474 48.8534 39.4739 40.6471 39.474 32.4408C39.474 32.3626 39.4777 32.2843 39.4736 32.2064C39.4359 31.9925 39.4719 31.7721 39.5756 31.5813C39.6793 31.3905 39.8446 31.2405 40.0446 31.1557C40.246 31.0763 40.4677 31.0643 40.6764 31.1216C40.8852 31.1789 41.0697 31.3024 41.2024 31.4735C42.2583 32.4604 43.3161 33.4454 44.3758 34.4283C49.4085 39.1125 54.4408 43.7971 59.4728 48.482C59.6549 48.6516 59.8246 48.8346 60 49.0114L60 49.7149ZM53.7037 55.6387C53.2447 54.566 52.8114 53.5659 52.3889 52.5613C52.2967 52.426 52.2391 52.2701 52.2213 52.1073C52.2034 51.9445 52.2258 51.7799 52.2865 51.6278C52.3471 51.4757 52.4442 51.3408 52.5692 51.235C52.6942 51.1292 52.8433 51.0558 53.0033 51.0211C54.255 50.4795 55.5094 49.9442 56.7617 49.4042C56.946 49.3247 57.1254 49.2336 57.3641 49.121L41.3924 34.2438V56.0976C42.8635 55.4569 44.27 54.8428 45.6778 54.2318C46.5188 53.8667 46.9408 54.028 47.3014 54.8598C47.7268 55.841 48.1436 56.826 48.5877 57.8642L53.7037 55.6387Z" fill="#663399"/>
<path d="M33.7455 8.46118C33.7414 9.0179 33.5721 9.56087 33.2588 10.0211C32.9456 10.4814 32.5027 10.8382 31.9862 11.0462C31.4698 11.2543 30.9032 11.3042 30.3584 11.1896C29.8136 11.075 29.3151 10.801 28.9263 10.4026C28.5375 10.0041 28.2758 9.49913 28.1745 8.95167C28.0733 8.40422 28.137 7.83902 28.3576 7.32785C28.5782 6.81667 28.9457 6.38258 29.4134 6.08068C29.8812 5.77878 30.4282 5.6227 30.9848 5.63225C31.7236 5.64877 32.4265 5.95426 32.9427 6.48315C33.4588 7.01204 33.747 7.72219 33.7455 8.46118ZM30.9397 7.50851C30.7542 7.50795 30.5729 7.5626 30.4186 7.66548C30.2643 7.76836 30.1442 7.91483 30.0735 8.08622C30.0027 8.25762 29.9846 8.44619 30.0214 8.62793C30.0582 8.80966 30.1482 8.97633 30.2801 9.10671C30.4119 9.23709 30.5796 9.32528 30.7617 9.36005C30.9438 9.39483 31.1322 9.37461 31.3028 9.30197C31.4734 9.22933 31.6185 9.10756 31.7197 8.95216C31.8208 8.79677 31.8735 8.61478 31.8708 8.42938C31.8657 8.18498 31.7656 7.95217 31.5918 7.78028C31.418 7.60839 31.1841 7.51091 30.9397 7.50851Z" fill="#663399"/>
<path d="M41.2455 8.43211C41.2472 8.98888 41.0835 9.53361 40.775 9.99712C40.4665 10.4606 40.0272 10.822 39.513 11.0354C38.9987 11.2488 38.4326 11.3045 37.8866 11.1955C37.3406 11.0865 36.8393 10.8177 36.4464 10.4233C36.0535 10.0288 35.7866 9.52647 35.6797 8.98005C35.5729 8.43363 35.6308 7.86778 35.8461 7.35434C36.0615 6.8409 36.4246 6.40304 36.8893 6.09637C37.354 5.78969 37.8993 5.62802 38.4561 5.6319C39.195 5.6406 39.9011 5.93876 40.4227 6.46233C40.9442 6.9859 41.2396 7.69312 41.2455 8.43211ZM39.3708 8.44368C39.371 8.25852 39.3161 8.07748 39.2131 7.92359C39.1102 7.7697 38.9638 7.64992 38.7925 7.57948C38.6213 7.50904 38.4329 7.49114 38.2515 7.52804C38.07 7.56494 37.9037 7.65499 37.7735 7.78671C37.6434 7.91844 37.5554 8.0859 37.5207 8.26779C37.4861 8.44967 37.5063 8.63776 37.5788 8.80813C37.6513 8.9785 37.7729 9.12345 37.928 9.22453C38.0832 9.32561 38.2649 9.37826 38.45 9.37577C38.6946 9.37074 38.9276 9.27057 39.0995 9.09653C39.2714 8.9225 39.3687 8.68831 39.3708 8.44368Z" fill="#663399"/>
<path d="M45.9449 11.2538C45.3902 11.2558 44.8474 11.0936 44.3847 10.7876C43.922 10.4817 43.5602 10.0457 43.3448 9.53458C43.1295 9.02344 43.0701 8.46 43.1743 7.9152C43.2785 7.3704 43.5415 6.8686 43.9303 6.47299C44.319 6.07737 44.8162 5.80563 45.3591 5.69197C45.902 5.57831 46.4664 5.62782 46.9812 5.83426C47.496 6.0407 47.9382 6.39485 48.2522 6.85211C48.5661 7.30937 48.7378 7.84929 48.7455 8.40391C48.7495 8.77513 48.6802 9.14349 48.5414 9.48784C48.4027 9.83219 48.1973 10.1458 47.9371 10.4106C47.6769 10.6753 47.367 10.8861 47.0251 11.0309C46.6832 11.1756 46.3161 11.2514 45.9449 11.2538ZM45.9526 9.37615C46.138 9.37326 46.3183 9.31527 46.4706 9.20957C46.6229 9.10387 46.7403 8.95524 46.8078 8.78261C46.8754 8.60997 46.8901 8.42114 46.8499 8.24015C46.8098 8.05916 46.7168 7.8942 46.5826 7.76628C46.4484 7.63835 46.2792 7.55325 46.0965 7.5218C45.9138 7.49035 45.7259 7.51398 45.5567 7.58968C45.3874 7.66538 45.2446 7.78973 45.1463 7.94689C45.0479 8.10405 44.9986 8.28691 45.0045 8.4722C45.0145 8.7164 45.1189 8.94719 45.2958 9.11585C45.4727 9.2845 45.7082 9.37784 45.9526 9.37615Z" fill="#663399"/>
</g>
<defs>
<clipPath id="clip0_30_3676">
<rect width="60" height="60" fill="white"/>
</clipPath>
</defs>
</svg>
