<svg width="20" height="20" viewBox="0 0 20 20" fill="none" xmlns="http://www.w3.org/2000/svg">
<path d="M19.203 8.07233L18.187 7.05825C18.0632 6.93478 17.965 6.78803 17.8981 6.62644C17.8312 6.46486 17.7969 6.29163 17.7972 6.11674V4.92869C17.7965 4.20587 17.5091 3.51286 16.9981 3.00167C16.487 2.49047 15.7941 2.20283 15.0713 2.20185H13.8833C13.5308 2.2009 13.1929 2.06119 12.9427 1.81296L11.9277 0.797027C11.416 0.286629 10.7227 0 10 0C9.27726 0 8.58403 0.286629 8.07233 0.797027L7.05825 1.81296C6.80773 2.06142 6.46957 2.20143 6.11674 2.20278H4.92776C4.20494 2.20376 3.51203 2.4914 3.00101 3.0026C2.48999 3.51379 2.20259 4.2068 2.20185 4.92962V6.11674C2.20231 6.29156 2.16818 6.46475 2.10144 6.62634C2.0347 6.78792 1.93666 6.93471 1.81296 7.05825L0.797027 8.07233C0.286629 8.58403 0 9.27726 0 10C0 10.7227 0.286629 11.416 0.797027 11.9277L1.81296 12.9418C1.93683 13.0652 2.03504 13.212 2.10194 13.3736C2.16885 13.5351 2.20312 13.7084 2.20278 13.8833V15.0713C2.20352 15.7941 2.49092 16.4871 3.00194 16.9983C3.51296 17.5095 4.20587 17.7972 4.92869 17.7982H6.11674C6.46933 17.7993 6.80725 17.9394 7.05732 18.188L8.07233 19.203C8.58391 19.7136 9.27719 20.0004 10 20.0004C10.7228 20.0004 11.4161 19.7136 11.9277 19.203L12.9418 18.188C13.1923 17.9395 13.5304 17.7995 13.8833 17.7982H15.0722C15.7951 17.7972 16.488 17.5095 16.999 16.9983C17.51 16.4871 17.7974 15.7941 17.7982 15.0713V13.8833C17.7978 13.7084 17.8321 13.5351 17.899 13.3736C17.9659 13.212 18.0641 13.0652 18.188 12.9418L19.203 11.9277C19.7134 11.416 20 10.7227 20 10C20 9.27726 19.7134 8.58403 19.203 8.07233ZM13.2841 8.63053L9.56274 12.3519C9.49808 12.4168 9.42124 12.4684 9.33662 12.5035C9.25201 12.5387 9.16128 12.5567 9.06966 12.5567C8.97803 12.5567 8.8873 12.5387 8.80269 12.5035C8.71807 12.4684 8.64123 12.4168 8.57657 12.3519L6.71588 10.4912C6.59263 10.359 6.52553 10.184 6.52872 10.0032C6.53191 9.82247 6.60514 9.65 6.73298 9.52215C6.86082 9.39431 7.03329 9.32108 7.21406 9.31789C7.39483 9.3147 7.56978 9.38181 7.70205 9.50506L9.06966 10.8736L12.298 7.64623C12.4302 7.52298 12.6052 7.45588 12.7859 7.45906C12.9667 7.46225 13.1392 7.53548 13.267 7.66333C13.3949 7.79117 13.4681 7.96364 13.4713 8.14441C13.4745 8.32517 13.4074 8.50012 13.2841 8.63239V8.63053Z" fill="#663399"/>
</svg>
