<svg width="18" height="18" viewBox="0 0 18 18" fill="none" xmlns="http://www.w3.org/2000/svg">
<g clip-path="url(#clip0_43_4107)">
<g clip-path="url(#clip1_43_4107)">
<path d="M9.47001 0C7.68997 0 5.94992 0.527841 4.46987 1.51677C2.98983 2.50571 1.83628 3.91131 1.15509 5.55585C0.473901 7.20038 0.295671 9.00998 0.642938 10.7558C0.990205 12.5016 1.84737 14.1053 3.10604 15.364C4.36472 16.6226 5.96836 17.4798 7.71419 17.8271C9.46002 18.1743 11.2696 17.9961 12.9142 17.3149C14.5587 16.6337 15.9643 15.4802 16.9532 14.0001C17.9422 12.5201 18.47 10.78 18.47 9C18.4673 6.61388 17.5182 4.32628 15.831 2.63904C14.1437 0.951797 11.8561 0.00271395 9.47001 0ZM9.47001 17.2346C7.28606 17.2346 5.19155 16.3671 3.64725 14.8228C2.10295 13.2785 1.23536 11.184 1.23534 9.00007C1.23533 6.81612 2.10288 4.72161 3.64715 3.17731C5.19142 1.63301 7.28592 0.765426 9.46987 0.765408C11.6538 0.765408 13.7485 1.63298 15.2927 3.17726C16.837 4.72155 17.7046 6.81605 17.7046 9C17.7046 11.184 16.837 13.2785 15.2927 14.8227C13.7485 16.367 11.654 17.2346 9.47001 17.2346Z" fill="#663399"/>
<path d="M9.09288 5.81327C9.09292 4.77824 9.09263 3.7432 9.09201 2.70815C9.09169 2.53025 9.13713 2.36478 9.31663 2.31501C9.37648 2.2957 9.43978 2.28941 9.50226 2.29656C9.56475 2.30372 9.62498 2.32415 9.67893 2.35649C9.77803 2.46947 9.83379 2.61397 9.83627 2.76423C9.84647 4.45292 9.84287 6.14169 9.84287 7.83044C9.84287 8.07169 9.85327 8.31354 9.83924 8.55398C9.82991 8.62167 9.84384 8.69052 9.87873 8.74927C9.91362 8.80802 9.96742 8.85319 10.0313 8.87738C11.2067 9.50607 12.3771 10.144 13.5487 10.7795C13.6398 10.8241 13.7276 10.8748 13.8117 10.9313C13.8898 10.9787 13.946 11.0549 13.9682 11.1435C13.9903 11.2321 13.9766 11.3258 13.93 11.4043C13.8923 11.4876 13.824 11.5532 13.7392 11.5873C13.6544 11.6215 13.5597 11.6216 13.4748 11.5877C13.4013 11.5617 13.3308 11.5281 13.2644 11.4872C11.9766 10.7879 10.691 10.0844 9.4 9.39107C9.30071 9.34744 9.21745 9.27401 9.16177 9.18093C9.10609 9.08786 9.08076 8.97977 9.08928 8.87165C9.09777 7.85226 9.09285 6.83275 9.09288 5.81327Z" fill="#663399"/>
</g>
</g>
<defs>
<clipPath id="clip0_43_4107">
<rect width="18" height="18" fill="white"/>
</clipPath>
<clipPath id="clip1_43_4107">
<rect width="18" height="18" fill="white" transform="translate(0.470001)"/>
</clipPath>
</defs>
</svg>
