<svg width="60" height="60" viewBox="0 0 60 60" fill="none" xmlns="http://www.w3.org/2000/svg">
<path d="M31.1074 43.2824C21.7829 43.2824 14.4787 39.5176 14.4787 34.7117V24.239C14.4787 24.0183 14.5664 23.8066 14.7225 23.6505C14.8786 23.4944 15.0902 23.4067 15.311 23.4067C15.5317 23.4067 15.7434 23.4944 15.8995 23.6505C16.0556 23.8066 16.1433 24.0183 16.1433 24.239V34.7117C16.1433 38.4552 22.996 41.6179 31.1074 41.6179C39.2192 41.6179 46.0722 38.4552 46.0722 34.7117V24.0471C46.0722 23.8264 46.1599 23.6147 46.316 23.4586C46.4721 23.3025 46.6838 23.2148 46.9045 23.2148C47.1252 23.2148 47.3369 23.3025 47.493 23.4586C47.6491 23.6147 47.7368 23.8264 47.7368 24.0471V34.7117C47.7368 39.5176 40.4322 43.2824 31.1074 43.2824ZM8.5596 54.343L4.2922 51.1798C3.81125 50.8234 3.85331 50.0886 4.37287 49.7897C7.40483 48.046 9.33895 43.907 9.4204 38.9877C9.42107 38.9501 9.42418 38.9131 9.42962 38.8769C9.41912 38.5577 9.41605 38.2382 9.4204 37.9189C9.42684 37.4591 9.80803 37.0899 10.2642 37.0982C10.3735 37.0998 10.4814 37.1228 10.5818 37.166C10.6822 37.2093 10.7731 37.2718 10.8493 37.3502C10.9255 37.4285 10.9855 37.5211 11.026 37.6227C11.0664 37.7243 11.0864 37.8328 11.0849 37.9421C11.0543 40.1221 11.4089 42.0478 11.7519 43.9101C12.4326 47.6066 13.0755 51.0978 9.6196 54.286C9.47714 54.4174 9.29334 54.4949 9.09985 54.5053C8.90636 54.5157 8.7153 54.4583 8.5596 54.343ZM6.22831 50.5429L8.97585 52.5794C11.1256 50.2548 10.7765 47.8249 10.1862 44.5995C9.42862 46.907 8.12315 49.0717 6.22831 50.5429Z" fill="#663399"/>
<path d="M28.9578 31.5716L10.9403 23.1051L6.28687 21.0128C4.73572 20.316 4.60499 17.913 6.06393 17.2252L29.1628 6.33219C30.143 5.87011 31.5547 5.93436 32.759 6.49543L55.4401 17.0586C56.1829 17.4041 56.6645 18.1978 56.6667 19.0805C56.6687 19.8714 56.2802 20.5463 55.6528 20.842L32.5531 31.7352C31.4802 32.2404 30.0402 32.0762 28.9578 31.5716ZM29.8728 7.83774L6.77393 18.7307C6.75994 18.7372 6.70579 18.8203 6.70723 18.9827C6.70901 19.1793 6.79967 19.4183 6.96924 19.4944C13.1332 22.2659 11.2871 21.4317 11.6419 21.5954L29.6632 30.064C30.3994 30.4071 31.3172 30.4771 31.8433 30.2293L54.9429 19.3361C54.9658 19.3146 55.0225 19.1759 54.9944 18.981C54.9837 18.9071 54.9338 18.6589 54.7375 18.5676L32.0559 8.0042C31.4221 7.7089 30.4828 7.5501 29.8728 7.83774Z" fill="#663399"/>
<path d="M10.711 34.019C10.6018 34.017 10.4939 33.9935 10.3937 33.9499C10.2935 33.9063 10.2029 33.8433 10.127 33.7646C10.0511 33.686 9.99145 33.5931 9.95145 33.4914C9.91144 33.3897 9.89187 33.2811 9.89384 33.1718C9.94222 30.4815 9.64826 24.5199 9.8924 21.9948C9.93668 21.5374 10.3434 21.2034 10.8009 21.2464C11.0206 21.2676 11.2229 21.3753 11.3633 21.5457C11.5036 21.7161 11.5705 21.9352 11.5493 22.1549C11.3184 24.5436 11.6069 30.4996 11.5582 33.2017C11.5499 33.6651 11.1652 34.0286 10.711 34.019Z" fill="#663399"/>
<path d="M10.558 38.7865C8.78466 38.7865 7.34192 37.3438 7.34192 35.5705C7.34192 33.7972 8.78466 32.3545 10.558 32.3545C12.3313 32.3545 13.774 33.7972 13.774 35.5705C13.774 37.3438 12.3313 38.7865 10.558 38.7865ZM10.558 34.0189C9.7025 34.0189 9.00649 34.715 9.00649 35.5704C9.00649 36.4259 9.7025 37.1218 10.558 37.1218C11.4135 37.1218 12.1095 36.4259 12.1095 35.5704C12.1095 34.715 11.4135 34.0189 10.558 34.0189Z" fill="#663399"/>
</svg>
