<svg width="60" height="60" viewBox="0 0 60 60" fill="none" xmlns="http://www.w3.org/2000/svg">
<path fill-rule="evenodd" clip-rule="evenodd" d="M56.739 43.9505C56.6783 43.9505 56.6182 43.9385 56.5621 43.9152C56.506 43.8919 56.455 43.8578 56.4121 43.8148C56.3692 43.7718 56.3351 43.7207 56.3119 43.6645C56.2887 43.6083 56.2767 43.5481 56.2767 43.4873V14.1463C56.2767 11.9411 54.5922 10.1464 52.523 10.1464H7.47697C5.40772 10.1464 3.72325 11.9411 3.72325 14.1463V43.4886C3.71679 43.6069 3.66533 43.7182 3.57948 43.7997C3.49362 43.8811 3.37988 43.9265 3.26165 43.9265C3.14342 43.9265 3.02968 43.8811 2.94383 43.7997C2.85797 43.7182 2.80652 43.6069 2.80005 43.4886V14.1463C2.80005 11.4307 4.89698 9.22266 7.47697 9.22266H52.5244C55.1016 9.22266 57.1999 11.4307 57.1999 14.1463V43.4886C57.1999 43.7438 56.9923 43.9519 56.739 43.9505Z" fill="#663399"/>
<path fill-rule="evenodd" clip-rule="evenodd" d="M6.32679 40.2694H53.6732V14.1462C53.6732 13.4722 53.1472 12.9021 52.5244 12.9021H7.4756C6.85275 12.9021 6.3254 13.4722 6.3254 14.1462L6.32679 40.2694ZM54.1355 41.1945H5.86449C5.74213 41.1942 5.62489 41.1452 5.5385 41.0584C5.4521 40.9715 5.40358 40.8539 5.40358 40.7313V14.1462C5.40358 12.9507 6.33371 11.9771 7.47699 11.9771H52.5244C53.6663 11.9771 54.5964 12.9507 54.5964 14.1462V40.7313C54.5964 40.9865 54.3888 41.1945 54.1355 41.1945ZM0.923204 43.9504V46.4025C0.923938 47.0529 1.18218 47.6764 1.64125 48.1361C2.10031 48.5959 2.72267 48.8543 3.3717 48.8547H56.6297C57.2785 48.8539 57.9005 48.5953 58.3592 48.1356C58.818 47.6759 59.076 47.0526 59.0768 46.4025V43.9504H0.923204ZM56.6297 49.7798H3.3717C2.4777 49.779 1.62052 49.4228 0.988359 48.7894C0.3562 48.1559 0.000733093 47.297 0 46.4011L0 43.4858C0 43.2306 0.207617 43.0239 0.46091 43.0239H59.5391C59.7938 43.0239 60 43.232 60 43.4858V46.4011C59.9989 47.2965 59.6434 48.1549 59.0116 48.788C58.3798 49.4211 57.5232 49.7773 56.6297 49.7784V49.7798Z" fill="#663399"/>
<path d="M29.9446 34.5357C34.305 34.5357 37.8528 30.9831 37.8528 26.6165C37.8528 22.25 34.305 18.6973 29.9446 18.6973C25.5813 18.6973 22.0312 22.2499 22.0312 26.6165C22.0312 30.983 25.5812 34.5357 29.9446 34.5357ZM29.9446 19.489C33.8693 19.489 37.0621 22.6862 37.0621 26.6165C37.0621 30.5467 33.8693 33.7439 29.9446 33.7439C26.017 33.7439 22.8219 30.5467 22.8219 26.6165C22.8219 22.6862 26.017 19.489 29.9446 19.489Z" fill="#663399"/>
<path d="M28.1745 30.3151C28.2372 30.349 28.3079 30.3654 28.3791 30.3626C28.4504 30.3597 28.5195 30.3377 28.5792 30.2989L33.7935 26.9156C33.8487 26.8798 33.8941 26.8308 33.9255 26.7731C33.9569 26.7153 33.9734 26.6507 33.9734 26.5851C33.9734 26.5194 33.9569 26.4548 33.9255 26.3971C33.8941 26.3394 33.8487 26.2904 33.7935 26.2545L28.5792 22.8712C28.5195 22.8323 28.4504 22.8103 28.3791 22.8074C28.3079 22.8046 28.2372 22.821 28.1745 22.855C28.1118 22.8888 28.0595 22.9389 28.023 22.9999C27.9865 23.061 27.9673 23.1307 27.9673 23.2017V29.9683C27.9673 30.0394 27.9865 30.1091 28.023 30.1702C28.0595 30.2312 28.1118 30.2813 28.1745 30.3151ZM28.7591 23.9294L32.8518 26.5851L28.7591 29.2408V23.9294Z" fill="#663399"/>
<path fill-rule="evenodd" clip-rule="evenodd" d="M34.6154 46.1129H25.3847C24.5639 46.1129 23.8954 45.4195 23.8954 44.5693V43.4874C23.8954 43.3648 23.944 43.2471 24.0306 43.1604C24.1172 43.0736 24.2346 43.0249 24.357 43.0249C24.4794 43.0249 24.5968 43.0736 24.6834 43.1604C24.77 43.2471 24.8186 43.3648 24.8186 43.4874V44.5693C24.8186 44.9105 25.0719 45.1878 25.3847 45.1878H34.614C34.9254 45.1878 35.1787 44.9105 35.1787 44.5693V43.4874C35.1787 43.3648 35.2273 43.2471 35.3139 43.1604C35.4005 43.0736 35.5179 43.0249 35.6403 43.0249C35.7627 43.0249 35.8801 43.0736 35.9667 43.1604C36.0533 43.2471 36.1019 43.3648 36.1019 43.4874V44.5693C36.1019 45.4209 35.4347 46.1129 34.614 46.1129H34.6154Z" fill="#663399"/>
</svg>
